<?xml version="1.0" encoding="UTF-8" standalone="no"?>
<svg
   xmlns:dc="http://purl.org/dc/elements/1.1/"
   xmlns:cc="http://creativecommons.org/ns#"
   xmlns:rdf="http://www.w3.org/1999/02/22-rdf-syntax-ns#"
   xmlns:svg="http://www.w3.org/2000/svg"
   xmlns="http://www.w3.org/2000/svg"
   xmlns:sodipodi="http://sodipodi.sourceforge.net/DTD/sodipodi-0.dtd"
   xmlns:inkscape="http://www.inkscape.org/namespaces/inkscape"
   inkscape:export-ydpi="96"
   inkscape:export-xdpi="96"
   inkscape:export-filename="/home/remsprgm/OPEN/Other/Graphism/Projects/OpenScripts.png"
   id="svg8"
   version="1.1"
   viewBox="0 0 42.333332 42.333332"
   height="42.333332mm"
   width="42.333332mm"
   sodipodi:docname="OpenScripts.svg"
   inkscape:version="1.0 (4035a4fb49, 2020-05-01)">
  <sodipodi:namedview
     inkscape:document-rotation="0"
     pagecolor="#ffffff"
     bordercolor="#666666"
     borderopacity="1"
     objecttolerance="10"
     gridtolerance="10"
     guidetolerance="10"
     inkscape:pageopacity="0"
     inkscape:pageshadow="2"
     inkscape:window-width="1280"
     inkscape:window-height="999"
     id="namedview136"
     showgrid="false"
     fit-margin-top="0"
     fit-margin-left="0"
     fit-margin-right="0"
     fit-margin-bottom="0"
     inkscape:zoom="3.2655477"
     inkscape:cx="144.23213"
     inkscape:cy="99.837993"
     inkscape:window-x="0"
     inkscape:window-y="0"
     inkscape:window-maximized="1"
     inkscape:current-layer="svg8" />
  <defs
     id="defs2">
    <filter
       style="color-interpolation-filters:sRGB"
       id="filter2235">
      <feColorMatrix
         values="0.1 0 0 0 0.9 0 0.1 0 0 0.9 0 0 0.1 0 0.9 0 0 0 1 0"
         id="feColorMatrix2233" />
    </filter>
    <filter
       style="color-interpolation-filters:sRGB"
       id="filter2447">
      <feColorMatrix
         values="0.1 0 0 0 0.9 0 0.1 0 0 0.9 0 0 0.1 0 0.9 0 0 0 1 0"
         id="feColorMatrix2445" />
    </filter>
    <filter
       id="filter2235-7"
       style="color-interpolation-filters:sRGB">
      <feColorMatrix
         id="feColorMatrix2233-5"
         values="0.1 0 0 0 0.9 0 0.1 0 0 0.9 0 0 0.1 0 0.9 0 0 0 1 0" />
    </filter>
    <filter
       id="filter2447-3"
       style="color-interpolation-filters:sRGB">
      <feColorMatrix
         id="feColorMatrix2445-5"
         values="0.1 0 0 0 0.9 0 0.1 0 0 0.9 0 0 0.1 0 0.9 0 0 0 1 0" />
    </filter>
  </defs>
  <metadata
     id="metadata5">
    <rdf:RDF>
      <cc:Work
         rdf:about="">
        <dc:format>image/svg+xml</dc:format>
        <dc:type
           rdf:resource="http://purl.org/dc/dcmitype/StillImage" />
        <dc:title />
      </cc:Work>
    </rdf:RDF>
  </metadata>
  <g
     id="g369">
    <g
       id="g576"
       transform="translate(-153.88795,-67.46212)">
      <rect
         style="fill:#2c3a49;fill-opacity:1;stroke:none;stroke-width:0.217897"
         id="rect1952"
         width="42.333332"
         height="42.333332"
         x="153.88795"
         y="67.46212"
         ry="4.7603097" />
      <text
         xml:space="preserve"
         style="font-style:normal;font-variant:normal;font-weight:normal;font-stretch:normal;font-size:9.87778px;line-height:1.25;font-family:'Fira Code';-inkscape-font-specification:'Fira Code, Normal';font-variant-ligatures:normal;font-variant-caps:normal;font-variant-numeric:normal;font-variant-east-asian:normal;fill:#0067b0;fill-opacity:1;stroke:none;stroke-width:0.264583"
         x="163.05948"
         y="100.139"
         id="text4466"><tspan
           id="tspan4464"
           x="163.05948"
           y="100.139"
           style="font-style:normal;font-variant:normal;font-weight:normal;font-stretch:normal;font-size:9.87778px;font-family:'Fira Code';-inkscape-font-specification:'Fira Code, Normal';font-variant-ligatures:normal;font-variant-caps:normal;font-variant-numeric:normal;font-variant-east-asian:normal;fill:#0067b0;fill-opacity:1;stroke-width:0.264583">OPEN</tspan></text>
      <rect
         style="fill:#607d8b;fill-opacity:1;stroke:none;stroke-width:0.216614"
         id="rect4468"
         width="33.866665"
         height="0.79374999"
         x="158.12129"
         y="88.231911"
         ry="0.31734145" />
      <g
         style="fill:#dadadb"
         transform="translate(-46.333926,-32.867252)"
         id="g445">
        <g
           style="fill:#dadadb"
           id="g416">
          <g
             style="fill:#dadadb"
             id="layer1-7"
             transform="matrix(2.1333333,0,0,2.1333333,208.26258,-512.66837)">
            <path
               d="M 2,3 A 1.0000999,1.0000999 0 0 0 1,4 v 20 a 1.0000999,1.0000999 0 0 0 1,1 h 13 v 2.001953 h -2.996094 a 1.0001001,1.0001001 0 0 0 -0.103515,0 1.0023137,1.0023137 0 0 0 0.103515,2.001953 h 7.994141 a 1.0009765,1.0009765 0 1 0 0,-2.001953 H 17 V 25 h 13 a 1.0000999,1.0000999 0 0 0 1,-1 V 4 A 1.0000999,1.0000999 0 0 0 30,3 Z M 3,5 H 29 V 23 H 3 Z"
               id="rect959"
               style="color:#000000;font-style:normal;font-variant:normal;font-weight:normal;font-stretch:normal;font-size:medium;line-height:normal;font-family:sans-serif;font-variant-ligatures:normal;font-variant-position:normal;font-variant-caps:normal;font-variant-numeric:normal;font-variant-alternates:normal;font-feature-settings:normal;text-indent:0;text-align:start;text-decoration:none;text-decoration-line:none;text-decoration-style:solid;text-decoration-color:#000000;letter-spacing:normal;word-spacing:normal;text-transform:none;writing-mode:lr-tb;direction:ltr;text-orientation:mixed;dominant-baseline:auto;baseline-shift:baseline;text-anchor:start;white-space:normal;shape-padding:0;clip-rule:nonzero;display:inline;overflow:visible;visibility:visible;opacity:1;isolation:auto;mix-blend-mode:normal;color-interpolation:sRGB;color-interpolation-filters:linearRGB;solid-color:#000000;solid-opacity:1;vector-effect:none;fill:#dadadb;fill-opacity:1;fill-rule:nonzero;stroke:none;stroke-width:2;stroke-linecap:round;stroke-linejoin:round;stroke-miterlimit:4;stroke-dasharray:none;stroke-dashoffset:0;stroke-opacity:1;paint-order:stroke fill markers;color-rendering:auto;image-rendering:auto;shape-rendering:auto;text-rendering:auto;enable-background:accumulate"
               transform="matrix(0.26458333,0,0,0.26458333,0,288.53332)" />
            <path
               d="m 4.497917,294.08957 a 0.26458332,0.26458332 0 0 1 -0.2645833,0.26458 0.26458332,0.26458332 0 0 1 -0.2645833,-0.26458 0.26458332,0.26458332 0 0 1 0.2645833,-0.26459 0.26458332,0.26458332 0 0 1 0.2645833,0.26459 z"
               id="path971"
               style="opacity:1;fill:#dadadb;fill-opacity:1;stroke:none;stroke-width:0.529167;stroke-linecap:round;stroke-linejoin:round;stroke-miterlimit:4;stroke-dasharray:none;stroke-dashoffset:0;stroke-opacity:1;paint-order:stroke fill markers" />
          </g>
          <g
             style="fill:#dadadb"
             transform="matrix(0.1565778,0,0,0.1565778,211.72812,105.28119)"
             id="g329">
            <path
               style="fill:#dadadb"
               id="path313"
               fill="#37474f"
               d="m 22,31.001 c -4.965,0 -9,4.035 -9,9 0,4.965 4.035,9 9,9 4.969,0 9,-4.035 9,-9 0,-4.965 -4.031,-9 -9,-9 z m 0,17 c -4.415,0 -8,-3.585 -8,-8 0,-4.415 3.585,-8 8,-8 4.416,0 8,3.585 8,8 0,4.415 -3.584,8 -8,8 z" />
            <path
               style="fill:#dadadb"
               id="path315"
               fill="#37474f"
               d="m 23,24.001 c 0.074,0 0.201,0.104 0.216,0.177 l 0.606,3.035 c 0.014,0.069 0.026,0.152 0.044,0.268 l 0.105,0.672 0.663,0.149 c 1.335,0.3 2.603,0.827 3.769,1.566 l 0.573,0.363 0.549,-0.398 0.053,-0.038 c 0.06,-0.044 0.118,-0.087 0.173,-0.123 l 2.576,-1.719 c 0.012,-0.008 0.051,-0.022 0.11,-0.022 0.09,0 0.152,0.033 0.169,0.05 l 1.414,1.414 c 0.053,0.053 0.068,0.217 0.028,0.277 l -1.722,2.581 c -0.039,0.06 -0.091,0.128 -0.156,0.217 l -0.405,0.551 0.366,0.578 c 0.74,1.165 1.268,2.433 1.567,3.768 l 0.149,0.662 0.671,0.106 0.05,0.007 v 10e-4 c 0.077,0.012 0.154,0.023 0.215,0.035 l 3.038,0.607 C 37.896,38.8 38,38.927 38,39.001 v 2 c 0,0.074 -0.104,0.201 -0.177,0.216 l -3.035,0.606 c -0.064,0.013 -0.142,0.024 -0.219,0.036 l -0.05,0.008 v 0 l -0.671,0.106 -0.149,0.662 c -0.3,1.335 -0.827,2.603 -1.567,3.768 l -0.352,0.599 0.406,0.551 c 0.05,0.068 0.102,0.137 0.143,0.199 l 1.719,2.577 c 0.042,0.063 0.025,0.226 -0.027,0.278 l -1.415,1.415 c -0.021,0.021 -0.087,0.05 -0.169,0.05 -0.059,0 -0.097,-0.015 -0.107,-0.022 L 29.75,50.328 C 29.692,50.29 29.626,50.241 29.532,50.172 l -0.551,-0.403 -0.576,0.365 c -1.167,0.739 -2.435,1.267 -3.77,1.566 l -0.669,0.182 -0.104,0.673 c -0.013,0.082 -0.025,0.165 -0.038,0.23 l -0.607,3.038 c -0.015,0.073 -0.142,0.178 -0.216,0.178 h -2 c -0.074,0 -0.201,-0.104 -0.216,-0.177 L 20.177,52.779 C 20.165,52.722 20.156,52.656 20.146,52.59 L 20.135,52.521 20.03,51.849 19.367,51.7 c -1.332,-0.3 -2.599,-0.827 -3.766,-1.567 l -0.575,-0.364 -0.55,0.4 -0.052,0.038 c -0.06,0.044 -0.119,0.088 -0.174,0.124 l -2.577,1.719 c -0.012,0.009 -0.05,0.023 -0.108,0.023 -0.082,0 -0.148,-0.029 -0.17,-0.051 L 9.98,50.607 C 9.928,50.555 9.912,50.392 9.953,50.331 l 1.722,-2.58 c 0.034,-0.053 0.078,-0.112 0.122,-0.172 l 0.038,-0.052 0.4,-0.55 -0.364,-0.575 c -0.74,-1.167 -1.268,-2.434 -1.567,-3.766 L 10.155,41.973 9.48,41.867 9.411,41.856 C 9.345,41.846 9.278,41.836 9.216,41.824 L 6.178,41.217 C 6.104,41.202 6,41.075 6,41.001 v -2 C 6,38.927 6.104,38.8 6.177,38.785 l 3.045,-0.608 c 0.057,-0.012 0.123,-0.021 0.189,-0.031 l 0.069,-0.011 0.672,-0.105 0.149,-0.663 c 0.3,-1.332 0.827,-2.599 1.567,-3.766 l 0.364,-0.575 -0.4,-0.55 -0.038,-0.052 C 11.75,32.364 11.706,32.305 11.67,32.25 L 9.951,29.673 C 9.909,29.61 9.926,29.447 9.978,29.395 l 1.415,-1.415 c 0.021,-0.021 0.086,-0.049 0.168,-0.049 0.06,0 0.099,0.015 0.108,0.021 l 2.581,1.722 c 0.052,0.034 0.111,0.078 0.171,0.122 l 0.052,0.038 0.55,0.4 0.577,-0.364 c 1.167,-0.74 2.434,-1.268 3.766,-1.567 l 0.663,-0.149 0.105,-0.672 0.011,-0.069 c 0.01,-0.066 0.02,-0.133 0.032,-0.195 L 20.784,24.18 C 20.799,24.107 20.926,24.002 21,24.002 h 2 z m 0,-1 h -2 c -0.55,0 -1.088,0.441 -1.196,0.98 l -0.607,3.039 c -0.019,0.09 -0.034,0.2 -0.051,0.307 -1.472,0.331 -2.846,0.914 -4.082,1.698 -0.09,-0.065 -0.182,-0.134 -0.26,-0.186 l -2.578,-1.72 c -0.192,-0.128 -0.427,-0.189 -0.663,-0.189 -0.324,0 -0.65,0.117 -0.876,0.343 l -1.414,1.414 c -0.39,0.389 -0.458,1.081 -0.153,1.539 l 1.72,2.578 c 0.052,0.078 0.12,0.17 0.186,0.26 -0.784,1.236 -1.367,2.61 -1.698,4.082 -0.106,0.017 -0.217,0.032 -0.307,0.051 L 5.98,37.805 C 5.441,37.913 5,38.451 5,39.001 v 2 c 0,0.55 0.441,1.088 0.98,1.196 l 3.039,0.607 c 0.09,0.019 0.2,0.034 0.307,0.051 0.331,1.472 0.914,2.846 1.698,4.082 -0.065,0.09 -0.134,0.182 -0.186,0.26 l -1.72,2.578 c -0.305,0.458 -0.236,1.15 0.153,1.539 l 1.414,1.414 c 0.226,0.226 0.553,0.344 0.877,0.344 0.235,0 0.47,-0.063 0.662,-0.19 l 2.578,-1.72 c 0.078,-0.052 0.17,-0.12 0.26,-0.186 1.236,0.784 2.61,1.367 4.082,1.698 0.017,0.106 0.032,0.217 0.051,0.307 l 0.607,3.039 C 19.91,56.559 20.448,57 20.998,57 h 2 c 0.55,0 1.088,-0.441 1.196,-0.98 l 0.607,-3.039 c 0.018,-0.09 0.034,-0.199 0.051,-0.306 1.473,-0.331 2.848,-0.913 4.085,-1.697 0.088,0.064 0.179,0.132 0.257,0.184 l 2.578,1.72 c 0.192,0.128 0.427,0.19 0.662,0.19 0.325,0 0.651,-0.118 0.877,-0.344 l 1.414,-1.414 c 0.39,-0.389 0.458,-1.081 0.153,-1.539 l -1.72,-2.578 c -0.052,-0.078 -0.119,-0.169 -0.185,-0.258 0.785,-1.237 1.367,-2.612 1.698,-4.084 0.105,-0.017 0.216,-0.033 0.306,-0.051 l 3.039,-0.607 c 0.539,-0.108 0.98,-0.646 0.98,-1.196 v -2 c 0,-0.55 -0.441,-1.088 -0.98,-1.196 l -3.039,-0.607 c -0.09,-0.018 -0.2,-0.034 -0.306,-0.051 -0.331,-1.472 -0.913,-2.847 -1.698,-4.084 0.065,-0.089 0.133,-0.18 0.185,-0.258 l 1.72,-2.578 c 0.304,-0.458 0.236,-1.149 -0.153,-1.539 l -1.414,-1.414 c -0.225,-0.226 -0.552,-0.343 -0.876,-0.343 -0.236,0 -0.471,0.062 -0.663,0.189 l -2.578,1.72 c -0.078,0.052 -0.169,0.119 -0.258,0.184 C 27.7,28.24 26.325,27.658 24.852,27.327 24.835,27.221 24.819,27.111 24.801,27.021 L 24.194,23.982 C 24.088,23.442 23.55,23.001 23,23.001 Z" />
            <path
               style="fill:#dadadb"
               id="path317"
               fill="#37474f"
               d="m 22,35.946 c -2.207,0 -4,1.816 -4,4.055 0,2.239 1.793,4.055 4,4.055 2.207,0 4,-1.816 4,-4.055 0,-2.239 -1.793,-4.055 -4,-4.055 z m 0,7.055 c -1.655,0 -3,-1.345 -3,-3 0,-1.655 1.345,-3 3,-3 1.655,0 3,1.345 3,3 0,1.655 -1.345,3 -3,3 z" />
            <path
               style="fill:#dadadb"
               id="path319"
               fill="#37474f"
               d="m 57.36,16.359 -3.099,-0.017 c -0.121,-10e-4 -0.264,0.004 -0.409,0.012 -0.317,-0.605 -0.69,-1.173 -1.116,-1.691 0.063,-0.13 0.122,-0.258 0.169,-0.369 l 1.194,-2.86 C 54.31,10.927 54.112,10.26 53.656,9.954 L 51.998,8.835 C 51.735,8.658 51.391,8.605 51.073,8.666 50.841,8.711 50.623,8.817 50.458,8.979 l -2.203,2.18 c -0.085,0.084 -0.182,0.188 -0.279,0.295 -0.641,-0.201 -1.306,-0.333 -1.985,-0.401 -0.05,-0.138 -0.098,-0.271 -0.145,-0.383 L 44.67,7.801 C 44.461,7.293 43.848,6.963 43.309,7.069 L 41.345,7.45 c -0.539,0.105 -0.983,0.642 -0.986,1.191 l -0.017,3.099 c 0,0.121 0.005,0.264 0.012,0.409 -0.605,0.317 -1.173,0.689 -1.691,1.116 -0.131,-0.063 -0.259,-0.122 -0.37,-0.168 l -2.859,-1.195 c -0.213,-0.089 -0.454,-0.105 -0.687,-0.06 -0.318,0.062 -0.617,0.238 -0.794,0.503 l -1.119,1.658 c -0.308,0.456 -0.243,1.148 0.144,1.54 l 2.18,2.203 c 0.084,0.085 0.188,0.182 0.295,0.278 -0.201,0.642 -0.333,1.307 -0.401,1.986 -0.139,0.05 -0.271,0.098 -0.384,0.145 l -2.866,1.176 c -0.508,0.209 -0.839,0.822 -0.734,1.361 l 0.382,1.963 c 0.105,0.54 0.641,0.984 1.191,0.987 l 3.099,0.017 c 0.121,0 0.264,-0.004 0.409,-0.012 0.317,0.605 0.69,1.172 1.116,1.691 -0.063,0.131 -0.123,0.26 -0.17,0.37 l -1.195,2.86 c -0.211,0.507 -0.013,1.173 0.443,1.48 l 1.658,1.119 c 0.264,0.177 0.606,0.23 0.925,0.169 0.232,-0.045 0.45,-0.151 0.615,-0.313 l 2.203,-2.18 c 0.085,-0.084 0.182,-0.188 0.278,-0.296 0.642,0.201 1.307,0.334 1.986,0.402 0.05,0.138 0.098,0.271 0.145,0.383 L 45.33,34.2 c 0.209,0.509 0.822,0.839 1.361,0.733 l 1.964,-0.381 c 0.539,-0.105 0.983,-0.642 0.986,-1.191 l 0.016,-3.099 c 0.001,-0.121 -0.004,-0.264 -0.011,-0.409 0.605,-0.317 1.173,-0.69 1.691,-1.116 0.13,0.063 0.258,0.123 0.369,0.169 l 2.86,1.194 c 0.213,0.089 0.454,0.105 0.687,0.06 0.318,-0.062 0.617,-0.239 0.794,-0.503 l 1.119,-1.658 c 0.307,-0.456 0.242,-1.148 -0.145,-1.54 l -2.18,-2.203 c -0.084,-0.085 -0.188,-0.182 -0.295,-0.278 0.2,-0.642 0.333,-1.307 0.401,-1.987 0.138,-0.048 0.271,-0.096 0.383,-0.143 l 2.868,-1.177 c 0.508,-0.209 0.838,-0.822 0.732,-1.361 L 58.549,17.346 C 58.446,16.807 57.911,16.362 57.36,16.359 Z m 0.592,3.141 c 0.015,0.073 -0.064,0.218 -0.133,0.246 l -2.865,1.177 c -0.097,0.039 -0.213,0.082 -0.332,0.123 l -0.604,0.209 -0.063,0.637 c -0.061,0.616 -0.183,1.219 -0.361,1.786 l -0.19,0.61 0.474,0.43 c 0.093,0.084 0.183,0.168 0.256,0.241 l 2.179,2.203 c 0.053,0.053 0.068,0.216 0.026,0.277 l -1.117,1.658 c -0.017,0.024 -0.076,0.065 -0.156,0.082 -0.06,0.011 -0.099,0.004 -0.111,-0.002 l -2.86,-1.194 C 52,27.942 51.889,27.89 51.776,27.836 l -0.575,-0.277 -0.494,0.405 c -0.46,0.378 -0.973,0.717 -1.521,1.004 l -0.562,0.295 0.027,0.636 c 0.007,0.129 0.011,0.254 0.011,0.358 l -0.017,3.098 c 0,0.076 -0.105,0.202 -0.178,0.216 l -1.963,0.383 c -0.073,0.014 -0.218,-0.065 -0.246,-0.133 l -1.176,-2.865 c -0.04,-0.098 -0.083,-0.217 -0.125,-0.339 l -0.213,-0.599 -0.632,-0.063 c -0.616,-0.061 -1.219,-0.183 -1.786,-0.361 l -0.61,-0.19 -0.43,0.474 c -0.084,0.093 -0.168,0.183 -0.241,0.256 l -2.203,2.179 c -0.01,0.011 -0.044,0.032 -0.103,0.043 -0.088,0.018 -0.155,-0.003 -0.175,-0.017 l -1.658,-1.117 c -0.062,-0.043 -0.109,-0.199 -0.08,-0.268 l 1.193,-2.858 c 0.042,-0.097 0.095,-0.209 0.149,-0.324 l 0.274,-0.575 -0.403,-0.491 c -0.378,-0.46 -0.717,-0.973 -1.004,-1.521 l -0.298,-0.566 -0.64,0.033 c -0.126,0.006 -0.249,0.01 -0.352,0.011 l -3.099,-0.018 c -0.075,0 -0.201,-0.105 -0.215,-0.178 l -0.382,-1.963 c -0.014,-0.073 0.065,-0.218 0.133,-0.246 l 2.863,-1.175 c 0.1,-0.04 0.217,-0.084 0.34,-0.126 l 0.6,-0.212 0.063,-0.633 c 0.061,-0.616 0.183,-1.219 0.361,-1.786 l 0.19,-0.61 -0.474,-0.43 c -0.093,-0.084 -0.183,-0.168 -0.256,-0.241 l -2.18,-2.202 C 33.637,14.79 33.622,14.626 33.664,14.565 l 1.117,-1.658 c 0.017,-0.024 0.075,-0.065 0.156,-0.082 0.06,-0.011 0.099,-0.004 0.111,0.002 l 2.858,1.194 c 0.097,0.041 0.209,0.094 0.324,0.147 l 0.575,0.275 0.491,-0.403 c 0.46,-0.378 0.972,-0.717 1.521,-1.004 L 41.379,12.74 41.352,12.105 C 41.345,11.976 41.341,11.85 41.341,11.747 l 0.017,-3.099 c 0,-0.075 0.105,-0.201 0.178,-0.215 L 43.499,8.05 c 0.073,-0.015 0.218,0.064 0.246,0.132 l 1.176,2.866 c 0.04,0.098 0.083,0.217 0.125,0.339 l 0.213,0.599 0.632,0.063 c 0.616,0.061 1.219,0.183 1.786,0.361 l 0.61,0.19 0.43,-0.474 c 0.084,-0.093 0.168,-0.183 0.241,-0.256 L 51.161,9.691 C 51.171,9.68 51.205,9.659 51.264,9.648 51.352,9.63 51.42,9.65 51.439,9.665 l 1.658,1.117 c 0.062,0.042 0.109,0.199 0.08,0.268 l -1.194,2.86 c -0.041,0.095 -0.093,0.206 -0.147,0.319 l -0.277,0.575 0.405,0.494 c 0.378,0.46 0.717,0.973 1.004,1.521 l 0.298,0.566 0.64,-0.033 c 0.125,-0.006 0.249,-0.01 0.352,-0.011 l 3.099,0.018 c 0.074,0 0.201,0.105 0.215,0.178 z" />
            <path
               style="fill:#dadadb"
               id="path321"
               fill="#37474f"
               d="m 44.236,17.075 c -2.17,0.421 -3.585,2.521 -3.162,4.689 0.421,2.168 2.521,3.585 4.689,3.162 2.168,-0.421 3.585,-2.521 3.162,-4.689 -0.42,-2.168 -2.521,-3.585 -4.689,-3.162 z m 1.337,6.871 c -1.627,0.315 -3.201,-0.746 -3.519,-2.372 -0.315,-1.626 0.745,-3.201 2.372,-3.519 1.626,-0.315 3.201,0.746 3.519,2.372 0.316,1.627 -0.746,3.202 -2.372,3.519 z" />
            <path
               style="fill:#dadadb"
               id="path323"
               fill="#37474f"
               d="m 40.05,16.051 c -2.732,2.733 -2.732,7.167 0,9.9 2.733,2.732 7.167,2.732 9.899,0 2.733,-2.733 2.733,-7.167 0,-9.899 -2.732,-2.734 -7.166,-2.734 -9.899,-0.001 z m 9.192,9.192 c -2.342,2.343 -6.143,2.343 -8.484,0 -2.343,-2.342 -2.343,-6.143 0,-8.484 2.342,-2.343 6.143,-2.343 8.484,0 2.343,2.342 2.343,6.142 0,8.484 z" />
            <path
               style="fill:#dadadb"
               id="path325"
               fill="#37474f"
               d="m 57.734,49.717 c 0.548,-0.053 1.063,-0.541 1.145,-1.085 v -10e-4 c 0.076,-0.508 -0.223,-1.079 -0.675,-1.325 -0.033,-0.018 -0.065,-0.033 -0.1,-0.047 l -1.962,-0.814 c -0.05,-0.021 -0.116,-0.042 -0.172,-0.063 -0.07,-0.886 -0.288,-1.753 -0.641,-2.565 0.041,-0.047 0.089,-0.098 0.125,-0.141 l 1.349,-1.636 c 0.35,-0.426 0.369,-1.136 0.043,-1.578 H 56.845 C 56.743,40.324 56.606,40.21 56.451,40.125 56.11,39.939 55.677,39.895 55.327,40.039 l -1.963,0.812 c -0.049,0.021 -0.11,0.051 -0.163,0.075 -0.418,-0.357 -0.879,-0.68 -1.382,-0.952 -0.291,-0.158 -0.589,-0.291 -0.89,-0.41 -0.003,-0.061 -0.004,-0.13 -0.01,-0.184 l -0.204,-2.113 c -0.04,-0.414 -0.329,-0.81 -0.703,-1.014 -0.12,-0.065 -0.249,-0.11 -0.382,-0.13 h -0.001 c -0.543,-0.082 -1.161,0.267 -1.373,0.774 l -0.814,1.962 c -0.021,0.05 -0.042,0.115 -0.063,0.171 -0.886,0.07 -1.752,0.288 -2.565,0.641 -0.047,-0.041 -0.097,-0.089 -0.139,-0.124 l -1.639,-1.35 c -0.054,-0.045 -0.113,-0.084 -0.176,-0.117 -0.425,-0.231 -1.014,-0.21 -1.4,0.074 v 0.002 c -0.443,0.326 -0.633,1.009 -0.423,1.518 l 0.811,1.963 c 0.021,0.049 0.05,0.108 0.075,0.162 -0.359,0.418 -0.68,0.879 -0.954,1.382 -0.158,0.291 -0.291,0.59 -0.409,0.89 -0.06,0.004 -0.129,0.005 -0.184,0.01 l -2.113,0.205 c -0.547,0.052 -1.062,0.54 -1.144,1.084 h 10e-4 c -0.077,0.508 0.221,1.08 0.674,1.326 0.033,0.018 0.065,0.033 0.1,0.048 l 1.962,0.813 c 0.05,0.021 0.114,0.041 0.17,0.063 0.069,0.887 0.287,1.754 0.64,2.568 -0.04,0.045 -0.088,0.095 -0.124,0.137 l -1.35,1.639 c -0.35,0.425 -0.368,1.134 -0.042,1.576 h 0.001 c 0.102,0.139 0.239,0.252 0.394,0.337 0.342,0.186 0.775,0.23 1.125,0.086 l 1.962,-0.811 c 0.049,-0.02 0.108,-0.05 0.161,-0.074 0.418,0.358 0.879,0.68 1.382,0.953 0.292,0.159 0.589,0.29 0.89,0.409 0.004,0.061 0.005,0.13 0.01,0.184 l 0.205,2.112 c 0.04,0.414 0.329,0.81 0.703,1.014 0.12,0.065 0.249,0.11 0.381,0.13 l 0.001,10e-4 c 0.544,0.081 1.161,-0.267 1.372,-0.774 l 0.814,-1.962 c 0.021,-0.05 0.042,-0.114 0.063,-0.171 0.887,-0.069 1.754,-0.288 2.568,-0.641 0.046,0.04 0.096,0.089 0.138,0.124 l 1.637,1.349 c 0.054,0.045 0.113,0.084 0.175,0.118 0.426,0.231 1.016,0.209 1.4,-0.076 h 0.001 c 0.442,-0.327 0.632,-1.01 0.423,-1.518 l -0.812,-1.963 c -0.021,-0.049 -0.051,-0.108 -0.075,-0.162 0.358,-0.419 0.679,-0.879 0.953,-1.382 0.159,-0.291 0.291,-0.59 0.41,-0.891 0.06,-0.003 0.13,-0.005 0.185,-0.01 z m -2.206,-0.792 -0.068,0.004 -0.076,0.003 -0.64,0.035 -0.236,0.596 c -0.121,0.306 -0.234,0.554 -0.358,0.781 -0.231,0.426 -0.512,0.834 -0.834,1.211 l -0.41,0.479 0.257,0.576 0.043,0.091 0.021,0.046 0.811,1.962 c 0.034,0.082 -0.014,0.263 -0.083,0.325 l -0.011,0.008 C 53.889,55.083 53.722,55.1 53.602,55.034 L 53.6,55.033 51.967,53.687 51.92,53.645 51.85,53.581 51.373,53.16 50.79,53.413 c -0.719,0.312 -1.475,0.501 -2.249,0.563 l -0.641,0.051 -0.22,0.604 -0.021,0.059 -0.025,0.071 -0.814,1.96 c -0.035,0.085 -0.209,0.184 -0.302,0.17 -0.003,-10e-4 -0.021,-0.004 -0.051,-0.021 -0.105,-0.057 -0.18,-0.175 -0.185,-0.231 L 46.077,54.53 46.074,54.474 46.069,54.372 46.026,53.742 45.439,53.51 c -0.306,-0.121 -0.553,-0.234 -0.781,-0.358 -0.427,-0.231 -0.833,-0.513 -1.209,-0.834 l -0.493,-0.422 -0.586,0.278 -0.044,0.021 -0.003,10e-4 -0.067,0.031 -1.961,0.811 c -0.046,0.02 -0.164,0.016 -0.266,-0.04 -0.047,-0.025 -0.064,-0.049 -0.066,-0.051 l -0.011,-0.015 c -0.045,-0.083 -0.038,-0.266 0.018,-0.333 l 1.346,-1.633 0.044,-0.049 0.059,-0.064 0.425,-0.478 -0.254,-0.586 C 41.277,49.07 41.089,48.314 41.029,47.541 l -0.05,-0.628 -0.588,-0.227 -0.103,-0.038 -0.044,-0.015 -1.967,-0.817 c -0.094,-0.051 -0.176,-0.219 -0.164,-0.298 0.013,-0.09 0.161,-0.23 0.251,-0.239 l 2.11,-0.203 0.056,-0.003 0.102,-0.005 0.63,-0.043 0.232,-0.588 c 0.119,-0.3 0.236,-0.555 0.358,-0.779 0.232,-0.427 0.513,-0.833 0.834,-1.209 l 0.416,-0.485 -0.266,-0.581 -0.032,-0.07 -0.026,-0.058 -0.812,-1.963 c -0.035,-0.083 0.019,-0.277 0.091,-0.331 l 0.013,-0.009 c 0.065,-0.035 0.218,-0.046 0.332,0.016 l 0.003,0.002 1.633,1.345 0.045,0.041 0.074,0.067 0.477,0.418 0.582,-0.252 c 0.718,-0.313 1.474,-0.501 2.246,-0.562 l 0.628,-0.049 0.227,-0.589 0.038,-0.102 0.016,-0.046 0.814,-1.96 c 0.034,-0.083 0.211,-0.184 0.299,-0.17 l 0.01,0.001 c 0.011,0.003 0.026,0.009 0.044,0.019 0.105,0.057 0.18,0.175 0.186,0.23 l 0.203,2.11 0.003,0.061 0.005,0.09 0.038,0.636 0.592,0.235 c 0.306,0.121 0.553,0.234 0.78,0.357 0.426,0.232 0.833,0.512 1.209,0.834 l 0.486,0.415 0.58,-0.267 0.067,-0.031 0.062,-0.027 1.961,-0.811 c 0.045,-0.02 0.163,-0.017 0.265,0.039 0.037,0.021 0.06,0.041 0.068,0.053 0.055,0.074 0.049,0.275 -0.01,0.347 l -1.347,1.635 -0.041,0.046 -0.066,0.072 -0.417,0.477 0.251,0.581 c 0.313,0.718 0.5,1.474 0.561,2.246 l 0.05,0.628 0.588,0.227 0.1,0.037 0.048,0.018 1.967,0.816 c 0.093,0.051 0.175,0.219 0.163,0.3 -0.013,0.091 -0.16,0.229 -0.251,0.237 z" />
            <path
               style="fill:#dadadb"
               id="path327"
               fill="#37474f"
               d="m 49.671,43.926 c -1.699,-0.924 -3.823,-0.295 -4.747,1.403 -0.924,1.699 -0.295,3.823 1.403,4.747 1.699,0.923 3.823,0.295 4.747,-1.403 0.924,-1.699 0.296,-3.823 -1.403,-4.747 z m -2.865,5.271 c -1.213,-0.659 -1.662,-2.177 -1.002,-3.391 0.66,-1.213 2.177,-1.662 3.39,-1.002 1.213,0.659 1.662,2.177 1.002,3.39 -0.659,1.214 -2.177,1.662 -3.39,1.003 z" />
          </g>
        </g>
        <g
           style="fill:#dadadb"
           id="g402">
          <g
             style="fill:#dadadb"
             id="layer1-5"
             transform="matrix(1.086085,0,0,1.2515527,226.19135,-254.43323)">
            <path
               d="m 2.1166666,288.7979 c -0.4351621,0 -0.79375,0.35859 -0.79375,0.79375 v 6.35 c 0,0.43516 0.3585879,0.79375 0.79375,0.79375 h 4.2333333 c 0.4351615,0 0.79375,-0.35859 0.79375,-0.79375 v -6.35 c 0,-0.43516 -0.3585885,-0.79375 -0.79375,-0.79375 z m 0,0.52917 h 4.2333333 c 0.1511403,0 0.2645833,0.11344 0.2645833,0.26458 v 6.35 c 0,0.15114 -0.113443,0.26459 -0.2645833,0.26459 H 2.1166666 c -0.1511396,0 -0.2645833,-0.11345 -0.2645833,-0.26459 v -6.35 c 0,-0.15114 0.1134437,-0.26458 0.2645833,-0.26458 z"
               id="rect845"
               style="color:#000000;font-style:normal;font-variant:normal;font-weight:normal;font-stretch:normal;font-size:medium;line-height:normal;font-family:sans-serif;font-variant-ligatures:normal;font-variant-position:normal;font-variant-caps:normal;font-variant-numeric:normal;font-variant-alternates:normal;font-feature-settings:normal;text-indent:0;text-align:start;text-decoration:none;text-decoration-line:none;text-decoration-style:solid;text-decoration-color:#000000;letter-spacing:normal;word-spacing:normal;text-transform:none;writing-mode:lr-tb;direction:ltr;text-orientation:mixed;dominant-baseline:auto;baseline-shift:baseline;text-anchor:start;white-space:normal;shape-padding:0;clip-rule:nonzero;display:inline;overflow:visible;visibility:visible;opacity:1;isolation:auto;mix-blend-mode:normal;color-interpolation:sRGB;color-interpolation-filters:linearRGB;solid-color:#000000;solid-opacity:1;vector-effect:none;fill:#dadadb;fill-opacity:1;fill-rule:nonzero;stroke:none;stroke-width:0.529167;stroke-linecap:round;stroke-linejoin:round;stroke-miterlimit:4;stroke-dasharray:none;stroke-dashoffset:0;stroke-opacity:1;paint-order:stroke fill markers;color-rendering:auto;image-rendering:auto;shape-rendering:auto;text-rendering:auto;enable-background:accumulate" />
            <path
               d="m 4.4979169,295.41309 a 0.26458335,0.26458335 0 0 1 -0.2645833,0.26458 0.26458335,0.26458335 0 0 1 -0.2645834,-0.26458 0.26458335,0.26458335 0 0 1 0.2645834,-0.26459 0.26458335,0.26458335 0 0 1 0.2645833,0.26459 z"
               id="path856"
               style="opacity:1;fill:#dadadb;fill-opacity:1;stroke:none;stroke-width:0.529167;stroke-linecap:round;stroke-linejoin:round;stroke-miterlimit:4;stroke-dasharray:none;stroke-dashoffset:0;stroke-opacity:1;paint-order:stroke fill markers" />
            <path
               d="m 3.7050781,289.85547 a 0.26465,0.26465 0 1 0 0,0.5293 h 1.0566407 a 0.26465,0.26465 0 1 0 0,-0.5293 z"
               id="path858"
               style="color:#000000;font-style:normal;font-variant:normal;font-weight:normal;font-stretch:normal;font-size:medium;line-height:normal;font-family:sans-serif;font-variant-ligatures:normal;font-variant-position:normal;font-variant-caps:normal;font-variant-numeric:normal;font-variant-alternates:normal;font-feature-settings:normal;text-indent:0;text-align:start;text-decoration:none;text-decoration-line:none;text-decoration-style:solid;text-decoration-color:#000000;letter-spacing:normal;word-spacing:normal;text-transform:none;writing-mode:lr-tb;direction:ltr;text-orientation:mixed;dominant-baseline:auto;baseline-shift:baseline;text-anchor:start;white-space:normal;shape-padding:0;clip-rule:nonzero;display:inline;overflow:visible;visibility:visible;opacity:1;isolation:auto;mix-blend-mode:normal;color-interpolation:sRGB;color-interpolation-filters:linearRGB;solid-color:#000000;solid-opacity:1;vector-effect:none;fill:#dadadb;fill-opacity:1;fill-rule:nonzero;stroke:none;stroke-width:0.529167;stroke-linecap:round;stroke-linejoin:miter;stroke-miterlimit:4;stroke-dasharray:none;stroke-dashoffset:0;stroke-opacity:1;color-rendering:auto;image-rendering:auto;shape-rendering:auto;text-rendering:auto;enable-background:accumulate" />
          </g>
          <g
             style="fill:#dadadb"
             id="g387"
             transform="matrix(0.08127136,0,0,0.08127136,228.04167,109.36792)">
            <path
               style="fill:#dadadb"
               d="m 22,31.001 c -4.965,0 -9,4.035 -9,9 0,4.965 4.035,9 9,9 4.969,0 9,-4.035 9,-9 0,-4.965 -4.031,-9 -9,-9 z m 0,17 c -4.415,0 -8,-3.585 -8,-8 0,-4.415 3.585,-8 8,-8 4.416,0 8,3.585 8,8 0,4.415 -3.584,8 -8,8 z"
               fill="#37474f"
               id="path371" />
            <path
               style="fill:#dadadb"
               d="m 23,24.001 c 0.074,0 0.201,0.104 0.216,0.177 l 0.606,3.035 c 0.014,0.069 0.026,0.152 0.044,0.268 l 0.105,0.672 0.663,0.149 c 1.335,0.3 2.603,0.827 3.769,1.566 l 0.573,0.363 0.549,-0.398 0.053,-0.038 c 0.06,-0.044 0.118,-0.087 0.173,-0.123 l 2.576,-1.719 c 0.012,-0.008 0.051,-0.022 0.11,-0.022 0.09,0 0.152,0.033 0.169,0.05 l 1.414,1.414 c 0.053,0.053 0.068,0.217 0.028,0.277 l -1.722,2.581 c -0.039,0.06 -0.091,0.128 -0.156,0.217 l -0.405,0.551 0.366,0.578 c 0.74,1.165 1.268,2.433 1.567,3.768 l 0.149,0.662 0.671,0.106 0.05,0.007 v 10e-4 c 0.077,0.012 0.154,0.023 0.215,0.035 l 3.038,0.607 C 37.896,38.8 38,38.927 38,39.001 v 2 c 0,0.074 -0.104,0.201 -0.177,0.216 l -3.035,0.606 c -0.064,0.013 -0.142,0.024 -0.219,0.036 l -0.05,0.008 v 0 l -0.671,0.106 -0.149,0.662 c -0.3,1.335 -0.827,2.603 -1.567,3.768 l -0.352,0.599 0.406,0.551 c 0.05,0.068 0.102,0.137 0.143,0.199 l 1.719,2.577 c 0.042,0.063 0.025,0.226 -0.027,0.278 l -1.415,1.415 c -0.021,0.021 -0.087,0.05 -0.169,0.05 -0.059,0 -0.097,-0.015 -0.107,-0.022 L 29.75,50.328 C 29.692,50.29 29.626,50.241 29.532,50.172 l -0.551,-0.403 -0.576,0.365 c -1.167,0.739 -2.435,1.267 -3.77,1.566 l -0.669,0.182 -0.104,0.673 c -0.013,0.082 -0.025,0.165 -0.038,0.23 l -0.607,3.038 c -0.015,0.073 -0.142,0.178 -0.216,0.178 h -2 c -0.074,0 -0.201,-0.104 -0.216,-0.177 L 20.177,52.779 C 20.165,52.722 20.156,52.656 20.146,52.59 L 20.135,52.521 20.03,51.849 19.367,51.7 c -1.332,-0.3 -2.599,-0.827 -3.766,-1.567 l -0.575,-0.364 -0.55,0.4 -0.052,0.038 c -0.06,0.044 -0.119,0.088 -0.174,0.124 l -2.577,1.719 c -0.012,0.009 -0.05,0.023 -0.108,0.023 -0.082,0 -0.148,-0.029 -0.17,-0.051 L 9.98,50.607 C 9.928,50.555 9.912,50.392 9.953,50.331 l 1.722,-2.58 c 0.034,-0.053 0.078,-0.112 0.122,-0.172 l 0.038,-0.052 0.4,-0.55 -0.364,-0.575 c -0.74,-1.167 -1.268,-2.434 -1.567,-3.766 L 10.155,41.973 9.48,41.867 9.411,41.856 C 9.345,41.846 9.278,41.836 9.216,41.824 L 6.178,41.217 C 6.104,41.202 6,41.075 6,41.001 v -2 C 6,38.927 6.104,38.8 6.177,38.785 l 3.045,-0.608 c 0.057,-0.012 0.123,-0.021 0.189,-0.031 l 0.069,-0.011 0.672,-0.105 0.149,-0.663 c 0.3,-1.332 0.827,-2.599 1.567,-3.766 l 0.364,-0.575 -0.4,-0.55 -0.038,-0.052 C 11.75,32.364 11.706,32.305 11.67,32.25 L 9.951,29.673 C 9.909,29.61 9.926,29.447 9.978,29.395 l 1.415,-1.415 c 0.021,-0.021 0.086,-0.049 0.168,-0.049 0.06,0 0.099,0.015 0.108,0.021 l 2.581,1.722 c 0.052,0.034 0.111,0.078 0.171,0.122 l 0.052,0.038 0.55,0.4 0.577,-0.364 c 1.167,-0.74 2.434,-1.268 3.766,-1.567 l 0.663,-0.149 0.105,-0.672 0.011,-0.069 c 0.01,-0.066 0.02,-0.133 0.032,-0.195 L 20.784,24.18 C 20.799,24.107 20.926,24.002 21,24.002 h 2 z m 0,-1 h -2 c -0.55,0 -1.088,0.441 -1.196,0.98 l -0.607,3.039 c -0.019,0.09 -0.034,0.2 -0.051,0.307 -1.472,0.331 -2.846,0.914 -4.082,1.698 -0.09,-0.065 -0.182,-0.134 -0.26,-0.186 l -2.578,-1.72 c -0.192,-0.128 -0.427,-0.189 -0.663,-0.189 -0.324,0 -0.65,0.117 -0.876,0.343 l -1.414,1.414 c -0.39,0.389 -0.458,1.081 -0.153,1.539 l 1.72,2.578 c 0.052,0.078 0.12,0.17 0.186,0.26 -0.784,1.236 -1.367,2.61 -1.698,4.082 -0.106,0.017 -0.217,0.032 -0.307,0.051 L 5.98,37.805 C 5.441,37.913 5,38.451 5,39.001 v 2 c 0,0.55 0.441,1.088 0.98,1.196 l 3.039,0.607 c 0.09,0.019 0.2,0.034 0.307,0.051 0.331,1.472 0.914,2.846 1.698,4.082 -0.065,0.09 -0.134,0.182 -0.186,0.26 l -1.72,2.578 c -0.305,0.458 -0.236,1.15 0.153,1.539 l 1.414,1.414 c 0.226,0.226 0.553,0.344 0.877,0.344 0.235,0 0.47,-0.063 0.662,-0.19 l 2.578,-1.72 c 0.078,-0.052 0.17,-0.12 0.26,-0.186 1.236,0.784 2.61,1.367 4.082,1.698 0.017,0.106 0.032,0.217 0.051,0.307 l 0.607,3.039 C 19.91,56.559 20.448,57 20.998,57 h 2 c 0.55,0 1.088,-0.441 1.196,-0.98 l 0.607,-3.039 c 0.018,-0.09 0.034,-0.199 0.051,-0.306 1.473,-0.331 2.848,-0.913 4.085,-1.697 0.088,0.064 0.179,0.132 0.257,0.184 l 2.578,1.72 c 0.192,0.128 0.427,0.19 0.662,0.19 0.325,0 0.651,-0.118 0.877,-0.344 l 1.414,-1.414 c 0.39,-0.389 0.458,-1.081 0.153,-1.539 l -1.72,-2.578 c -0.052,-0.078 -0.119,-0.169 -0.185,-0.258 0.785,-1.237 1.367,-2.612 1.698,-4.084 0.105,-0.017 0.216,-0.033 0.306,-0.051 l 3.039,-0.607 c 0.539,-0.108 0.98,-0.646 0.98,-1.196 v -2 c 0,-0.55 -0.441,-1.088 -0.98,-1.196 l -3.039,-0.607 c -0.09,-0.018 -0.2,-0.034 -0.306,-0.051 -0.331,-1.472 -0.913,-2.847 -1.698,-4.084 0.065,-0.089 0.133,-0.18 0.185,-0.258 l 1.72,-2.578 c 0.304,-0.458 0.236,-1.149 -0.153,-1.539 l -1.414,-1.414 c -0.225,-0.226 -0.552,-0.343 -0.876,-0.343 -0.236,0 -0.471,0.062 -0.663,0.189 l -2.578,1.72 c -0.078,0.052 -0.169,0.119 -0.258,0.184 C 27.7,28.24 26.325,27.658 24.852,27.327 24.835,27.221 24.819,27.111 24.801,27.021 L 24.194,23.982 C 24.088,23.442 23.55,23.001 23,23.001 Z"
               fill="#37474f"
               id="path373" />
            <path
               style="fill:#dadadb"
               d="m 22,35.946 c -2.207,0 -4,1.816 -4,4.055 0,2.239 1.793,4.055 4,4.055 2.207,0 4,-1.816 4,-4.055 0,-2.239 -1.793,-4.055 -4,-4.055 z m 0,7.055 c -1.655,0 -3,-1.345 -3,-3 0,-1.655 1.345,-3 3,-3 1.655,0 3,1.345 3,3 0,1.655 -1.345,3 -3,3 z"
               fill="#37474f"
               id="path375" />
            <path
               style="fill:#dadadb"
               d="m 57.36,16.359 -3.099,-0.017 c -0.121,-10e-4 -0.264,0.004 -0.409,0.012 -0.317,-0.605 -0.69,-1.173 -1.116,-1.691 0.063,-0.13 0.122,-0.258 0.169,-0.369 l 1.194,-2.86 C 54.31,10.927 54.112,10.26 53.656,9.954 L 51.998,8.835 C 51.735,8.658 51.391,8.605 51.073,8.666 50.841,8.711 50.623,8.817 50.458,8.979 l -2.203,2.18 c -0.085,0.084 -0.182,0.188 -0.279,0.295 -0.641,-0.201 -1.306,-0.333 -1.985,-0.401 -0.05,-0.138 -0.098,-0.271 -0.145,-0.383 L 44.67,7.801 C 44.461,7.293 43.848,6.963 43.309,7.069 L 41.345,7.45 c -0.539,0.105 -0.983,0.642 -0.986,1.191 l -0.017,3.099 c 0,0.121 0.005,0.264 0.012,0.409 -0.605,0.317 -1.173,0.689 -1.691,1.116 -0.131,-0.063 -0.259,-0.122 -0.37,-0.168 l -2.859,-1.195 c -0.213,-0.089 -0.454,-0.105 -0.687,-0.06 -0.318,0.062 -0.617,0.238 -0.794,0.503 l -1.119,1.658 c -0.308,0.456 -0.243,1.148 0.144,1.54 l 2.18,2.203 c 0.084,0.085 0.188,0.182 0.295,0.278 -0.201,0.642 -0.333,1.307 -0.401,1.986 -0.139,0.05 -0.271,0.098 -0.384,0.145 l -2.866,1.176 c -0.508,0.209 -0.839,0.822 -0.734,1.361 l 0.382,1.963 c 0.105,0.54 0.641,0.984 1.191,0.987 l 3.099,0.017 c 0.121,0 0.264,-0.004 0.409,-0.012 0.317,0.605 0.69,1.172 1.116,1.691 -0.063,0.131 -0.123,0.26 -0.17,0.37 l -1.195,2.86 c -0.211,0.507 -0.013,1.173 0.443,1.48 l 1.658,1.119 c 0.264,0.177 0.606,0.23 0.925,0.169 0.232,-0.045 0.45,-0.151 0.615,-0.313 l 2.203,-2.18 c 0.085,-0.084 0.182,-0.188 0.278,-0.296 0.642,0.201 1.307,0.334 1.986,0.402 0.05,0.138 0.098,0.271 0.145,0.383 L 45.33,34.2 c 0.209,0.509 0.822,0.839 1.361,0.733 l 1.964,-0.381 c 0.539,-0.105 0.983,-0.642 0.986,-1.191 l 0.016,-3.099 c 0.001,-0.121 -0.004,-0.264 -0.011,-0.409 0.605,-0.317 1.173,-0.69 1.691,-1.116 0.13,0.063 0.258,0.123 0.369,0.169 l 2.86,1.194 c 0.213,0.089 0.454,0.105 0.687,0.06 0.318,-0.062 0.617,-0.239 0.794,-0.503 l 1.119,-1.658 c 0.307,-0.456 0.242,-1.148 -0.145,-1.54 l -2.18,-2.203 c -0.084,-0.085 -0.188,-0.182 -0.295,-0.278 0.2,-0.642 0.333,-1.307 0.401,-1.987 0.138,-0.048 0.271,-0.096 0.383,-0.143 l 2.868,-1.177 c 0.508,-0.209 0.838,-0.822 0.732,-1.361 L 58.549,17.346 C 58.446,16.807 57.911,16.362 57.36,16.359 Z m 0.592,3.141 c 0.015,0.073 -0.064,0.218 -0.133,0.246 l -2.865,1.177 c -0.097,0.039 -0.213,0.082 -0.332,0.123 l -0.604,0.209 -0.063,0.637 c -0.061,0.616 -0.183,1.219 -0.361,1.786 l -0.19,0.61 0.474,0.43 c 0.093,0.084 0.183,0.168 0.256,0.241 l 2.179,2.203 c 0.053,0.053 0.068,0.216 0.026,0.277 l -1.117,1.658 c -0.017,0.024 -0.076,0.065 -0.156,0.082 -0.06,0.011 -0.099,0.004 -0.111,-0.002 l -2.86,-1.194 C 52,27.942 51.889,27.89 51.776,27.836 l -0.575,-0.277 -0.494,0.405 c -0.46,0.378 -0.973,0.717 -1.521,1.004 l -0.562,0.295 0.027,0.636 c 0.007,0.129 0.011,0.254 0.011,0.358 l -0.017,3.098 c 0,0.076 -0.105,0.202 -0.178,0.216 l -1.963,0.383 c -0.073,0.014 -0.218,-0.065 -0.246,-0.133 l -1.176,-2.865 c -0.04,-0.098 -0.083,-0.217 -0.125,-0.339 l -0.213,-0.599 -0.632,-0.063 c -0.616,-0.061 -1.219,-0.183 -1.786,-0.361 l -0.61,-0.19 -0.43,0.474 c -0.084,0.093 -0.168,0.183 -0.241,0.256 l -2.203,2.179 c -0.01,0.011 -0.044,0.032 -0.103,0.043 -0.088,0.018 -0.155,-0.003 -0.175,-0.017 l -1.658,-1.117 c -0.062,-0.043 -0.109,-0.199 -0.08,-0.268 l 1.193,-2.858 c 0.042,-0.097 0.095,-0.209 0.149,-0.324 l 0.274,-0.575 -0.403,-0.491 c -0.378,-0.46 -0.717,-0.973 -1.004,-1.521 l -0.298,-0.566 -0.64,0.033 c -0.126,0.006 -0.249,0.01 -0.352,0.011 l -3.099,-0.018 c -0.075,0 -0.201,-0.105 -0.215,-0.178 l -0.382,-1.963 c -0.014,-0.073 0.065,-0.218 0.133,-0.246 l 2.863,-1.175 c 0.1,-0.04 0.217,-0.084 0.34,-0.126 l 0.6,-0.212 0.063,-0.633 c 0.061,-0.616 0.183,-1.219 0.361,-1.786 l 0.19,-0.61 -0.474,-0.43 c -0.093,-0.084 -0.183,-0.168 -0.256,-0.241 l -2.18,-2.202 C 33.637,14.79 33.622,14.626 33.664,14.565 l 1.117,-1.658 c 0.017,-0.024 0.075,-0.065 0.156,-0.082 0.06,-0.011 0.099,-0.004 0.111,0.002 l 2.858,1.194 c 0.097,0.041 0.209,0.094 0.324,0.147 l 0.575,0.275 0.491,-0.403 c 0.46,-0.378 0.972,-0.717 1.521,-1.004 L 41.379,12.74 41.352,12.105 C 41.345,11.976 41.341,11.85 41.341,11.747 l 0.017,-3.099 c 0,-0.075 0.105,-0.201 0.178,-0.215 L 43.499,8.05 c 0.073,-0.015 0.218,0.064 0.246,0.132 l 1.176,2.866 c 0.04,0.098 0.083,0.217 0.125,0.339 l 0.213,0.599 0.632,0.063 c 0.616,0.061 1.219,0.183 1.786,0.361 l 0.61,0.19 0.43,-0.474 c 0.084,-0.093 0.168,-0.183 0.241,-0.256 L 51.161,9.691 C 51.171,9.68 51.205,9.659 51.264,9.648 51.352,9.63 51.42,9.65 51.439,9.665 l 1.658,1.117 c 0.062,0.042 0.109,0.199 0.08,0.268 l -1.194,2.86 c -0.041,0.095 -0.093,0.206 -0.147,0.319 l -0.277,0.575 0.405,0.494 c 0.378,0.46 0.717,0.973 1.004,1.521 l 0.298,0.566 0.64,-0.033 c 0.125,-0.006 0.249,-0.01 0.352,-0.011 l 3.099,0.018 c 0.074,0 0.201,0.105 0.215,0.178 z"
               fill="#37474f"
               id="path377" />
            <path
               style="fill:#dadadb"
               d="m 44.236,17.075 c -2.17,0.421 -3.585,2.521 -3.162,4.689 0.421,2.168 2.521,3.585 4.689,3.162 2.168,-0.421 3.585,-2.521 3.162,-4.689 -0.42,-2.168 -2.521,-3.585 -4.689,-3.162 z m 1.337,6.871 c -1.627,0.315 -3.201,-0.746 -3.519,-2.372 -0.315,-1.626 0.745,-3.201 2.372,-3.519 1.626,-0.315 3.201,0.746 3.519,2.372 0.316,1.627 -0.746,3.202 -2.372,3.519 z"
               fill="#37474f"
               id="path379" />
            <path
               style="fill:#dadadb"
               d="m 40.05,16.051 c -2.732,2.733 -2.732,7.167 0,9.9 2.733,2.732 7.167,2.732 9.899,0 2.733,-2.733 2.733,-7.167 0,-9.899 -2.732,-2.734 -7.166,-2.734 -9.899,-0.001 z m 9.192,9.192 c -2.342,2.343 -6.143,2.343 -8.484,0 -2.343,-2.342 -2.343,-6.143 0,-8.484 2.342,-2.343 6.143,-2.343 8.484,0 2.343,2.342 2.343,6.142 0,8.484 z"
               fill="#37474f"
               id="path381" />
            <path
               style="fill:#dadadb"
               d="m 57.734,49.717 c 0.548,-0.053 1.063,-0.541 1.145,-1.085 v -10e-4 c 0.076,-0.508 -0.223,-1.079 -0.675,-1.325 -0.033,-0.018 -0.065,-0.033 -0.1,-0.047 l -1.962,-0.814 c -0.05,-0.021 -0.116,-0.042 -0.172,-0.063 -0.07,-0.886 -0.288,-1.753 -0.641,-2.565 0.041,-0.047 0.089,-0.098 0.125,-0.141 l 1.349,-1.636 c 0.35,-0.426 0.369,-1.136 0.043,-1.578 H 56.845 C 56.743,40.324 56.606,40.21 56.451,40.125 56.11,39.939 55.677,39.895 55.327,40.039 l -1.963,0.812 c -0.049,0.021 -0.11,0.051 -0.163,0.075 -0.418,-0.357 -0.879,-0.68 -1.382,-0.952 -0.291,-0.158 -0.589,-0.291 -0.89,-0.41 -0.003,-0.061 -0.004,-0.13 -0.01,-0.184 l -0.204,-2.113 c -0.04,-0.414 -0.329,-0.81 -0.703,-1.014 -0.12,-0.065 -0.249,-0.11 -0.382,-0.13 h -0.001 c -0.543,-0.082 -1.161,0.267 -1.373,0.774 l -0.814,1.962 c -0.021,0.05 -0.042,0.115 -0.063,0.171 -0.886,0.07 -1.752,0.288 -2.565,0.641 -0.047,-0.041 -0.097,-0.089 -0.139,-0.124 l -1.639,-1.35 c -0.054,-0.045 -0.113,-0.084 -0.176,-0.117 -0.425,-0.231 -1.014,-0.21 -1.4,0.074 v 0.002 c -0.443,0.326 -0.633,1.009 -0.423,1.518 l 0.811,1.963 c 0.021,0.049 0.05,0.108 0.075,0.162 -0.359,0.418 -0.68,0.879 -0.954,1.382 -0.158,0.291 -0.291,0.59 -0.409,0.89 -0.06,0.004 -0.129,0.005 -0.184,0.01 l -2.113,0.205 c -0.547,0.052 -1.062,0.54 -1.144,1.084 h 10e-4 c -0.077,0.508 0.221,1.08 0.674,1.326 0.033,0.018 0.065,0.033 0.1,0.048 l 1.962,0.813 c 0.05,0.021 0.114,0.041 0.17,0.063 0.069,0.887 0.287,1.754 0.64,2.568 -0.04,0.045 -0.088,0.095 -0.124,0.137 l -1.35,1.639 c -0.35,0.425 -0.368,1.134 -0.042,1.576 h 0.001 c 0.102,0.139 0.239,0.252 0.394,0.337 0.342,0.186 0.775,0.23 1.125,0.086 l 1.962,-0.811 c 0.049,-0.02 0.108,-0.05 0.161,-0.074 0.418,0.358 0.879,0.68 1.382,0.953 0.292,0.159 0.589,0.29 0.89,0.409 0.004,0.061 0.005,0.13 0.01,0.184 l 0.205,2.112 c 0.04,0.414 0.329,0.81 0.703,1.014 0.12,0.065 0.249,0.11 0.381,0.13 l 0.001,10e-4 c 0.544,0.081 1.161,-0.267 1.372,-0.774 l 0.814,-1.962 c 0.021,-0.05 0.042,-0.114 0.063,-0.171 0.887,-0.069 1.754,-0.288 2.568,-0.641 0.046,0.04 0.096,0.089 0.138,0.124 l 1.637,1.349 c 0.054,0.045 0.113,0.084 0.175,0.118 0.426,0.231 1.016,0.209 1.4,-0.076 h 0.001 c 0.442,-0.327 0.632,-1.01 0.423,-1.518 l -0.812,-1.963 c -0.021,-0.049 -0.051,-0.108 -0.075,-0.162 0.358,-0.419 0.679,-0.879 0.953,-1.382 0.159,-0.291 0.291,-0.59 0.41,-0.891 0.06,-0.003 0.13,-0.005 0.185,-0.01 z m -2.206,-0.792 -0.068,0.004 -0.076,0.003 -0.64,0.035 -0.236,0.596 c -0.121,0.306 -0.234,0.554 -0.358,0.781 -0.231,0.426 -0.512,0.834 -0.834,1.211 l -0.41,0.479 0.257,0.576 0.043,0.091 0.021,0.046 0.811,1.962 c 0.034,0.082 -0.014,0.263 -0.083,0.325 l -0.011,0.008 C 53.889,55.083 53.722,55.1 53.602,55.034 L 53.6,55.033 51.967,53.687 51.92,53.645 51.85,53.581 51.373,53.16 50.79,53.413 c -0.719,0.312 -1.475,0.501 -2.249,0.563 l -0.641,0.051 -0.22,0.604 -0.021,0.059 -0.025,0.071 -0.814,1.96 c -0.035,0.085 -0.209,0.184 -0.302,0.17 -0.003,-10e-4 -0.021,-0.004 -0.051,-0.021 -0.105,-0.057 -0.18,-0.175 -0.185,-0.231 L 46.077,54.53 46.074,54.474 46.069,54.372 46.026,53.742 45.439,53.51 c -0.306,-0.121 -0.553,-0.234 -0.781,-0.358 -0.427,-0.231 -0.833,-0.513 -1.209,-0.834 l -0.493,-0.422 -0.586,0.278 -0.044,0.021 -0.003,10e-4 -0.067,0.031 -1.961,0.811 c -0.046,0.02 -0.164,0.016 -0.266,-0.04 -0.047,-0.025 -0.064,-0.049 -0.066,-0.051 l -0.011,-0.015 c -0.045,-0.083 -0.038,-0.266 0.018,-0.333 l 1.346,-1.633 0.044,-0.049 0.059,-0.064 0.425,-0.478 -0.254,-0.586 C 41.277,49.07 41.089,48.314 41.029,47.541 l -0.05,-0.628 -0.588,-0.227 -0.103,-0.038 -0.044,-0.015 -1.967,-0.817 c -0.094,-0.051 -0.176,-0.219 -0.164,-0.298 0.013,-0.09 0.161,-0.23 0.251,-0.239 l 2.11,-0.203 0.056,-0.003 0.102,-0.005 0.63,-0.043 0.232,-0.588 c 0.119,-0.3 0.236,-0.555 0.358,-0.779 0.232,-0.427 0.513,-0.833 0.834,-1.209 l 0.416,-0.485 -0.266,-0.581 -0.032,-0.07 -0.026,-0.058 -0.812,-1.963 c -0.035,-0.083 0.019,-0.277 0.091,-0.331 l 0.013,-0.009 c 0.065,-0.035 0.218,-0.046 0.332,0.016 l 0.003,0.002 1.633,1.345 0.045,0.041 0.074,0.067 0.477,0.418 0.582,-0.252 c 0.718,-0.313 1.474,-0.501 2.246,-0.562 l 0.628,-0.049 0.227,-0.589 0.038,-0.102 0.016,-0.046 0.814,-1.96 c 0.034,-0.083 0.211,-0.184 0.299,-0.17 l 0.01,0.001 c 0.011,0.003 0.026,0.009 0.044,0.019 0.105,0.057 0.18,0.175 0.186,0.23 l 0.203,2.11 0.003,0.061 0.005,0.09 0.038,0.636 0.592,0.235 c 0.306,0.121 0.553,0.234 0.78,0.357 0.426,0.232 0.833,0.512 1.209,0.834 l 0.486,0.415 0.58,-0.267 0.067,-0.031 0.062,-0.027 1.961,-0.811 c 0.045,-0.02 0.163,-0.017 0.265,0.039 0.037,0.021 0.06,0.041 0.068,0.053 0.055,0.074 0.049,0.275 -0.01,0.347 l -1.347,1.635 -0.041,0.046 -0.066,0.072 -0.417,0.477 0.251,0.581 c 0.313,0.718 0.5,1.474 0.561,2.246 l 0.05,0.628 0.588,0.227 0.1,0.037 0.048,0.018 1.967,0.816 c 0.093,0.051 0.175,0.219 0.163,0.3 -0.013,0.091 -0.16,0.229 -0.251,0.237 z"
               fill="#37474f"
               id="path383" />
            <path
               style="fill:#dadadb"
               d="m 49.671,43.926 c -1.699,-0.924 -3.823,-0.295 -4.747,1.403 -0.924,1.699 -0.295,3.823 1.403,4.747 1.699,0.923 3.823,0.295 4.747,-1.403 0.924,-1.699 0.296,-3.823 -1.403,-4.747 z m -2.865,5.271 c -1.213,-0.659 -1.662,-2.177 -1.002,-3.391 0.66,-1.213 2.177,-1.662 3.39,-1.002 1.213,0.659 1.662,2.177 1.002,3.39 -0.659,1.214 -2.177,1.662 -3.39,1.003 z"
               fill="#37474f"
               id="path385" />
          </g>
        </g>
      </g>
    </g>
    <text
       id="text332"
       y="40.125023"
       x="12.372422"
       style="font-style:normal;font-weight:normal;font-size:5.42299px;line-height:1.25;font-family:sans-serif;fill:#0264aa;fill-opacity:1;stroke:none;stroke-width:0.135575"
       xml:space="preserve"><tspan
         style="fill:#0264aa;stroke-width:0.135575"
         y="40.125023"
         x="12.372422"
         id="tspan330"
         sodipodi:role="line">Scripts</tspan></text>
  </g>
</svg>
