<?xml version="1.0" encoding="UTF-8" standalone="no"?>
<svg
   xmlns:dc="http://purl.org/dc/elements/1.1/"
   xmlns:cc="http://creativecommons.org/ns#"
   xmlns:rdf="http://www.w3.org/1999/02/22-rdf-syntax-ns#"
   xmlns:svg="http://www.w3.org/2000/svg"
   xmlns="http://www.w3.org/2000/svg"
   xmlns:sodipodi="http://sodipodi.sourceforge.net/DTD/sodipodi-0.dtd"
   xmlns:inkscape="http://www.inkscape.org/namespaces/inkscape"
   id="svg8"
   version="1.1"
   viewBox="0 0 85.788956 69.933632"
   height="69.933632mm"
   width="85.788956mm"
   sodipodi:docname="Logo.svg"
   inkscape:version="0.92.4 5da689c313, 2019-01-14">
  <sodipodi:namedview
     pagecolor="#ffffff"
     bordercolor="#666666"
     borderopacity="1"
     objecttolerance="10"
     gridtolerance="10"
     guidetolerance="10"
     inkscape:pageopacity="0"
     inkscape:pageshadow="2"
     inkscape:window-width="1280"
     inkscape:window-height="996"
     id="namedview18"
     showgrid="false"
     inkscape:zoom="1.6819304"
     inkscape:cx="205.85088"
     inkscape:cy="105.34248"
     inkscape:window-x="0"
     inkscape:window-y="0"
     inkscape:window-maximized="1"
     inkscape:current-layer="svg8"
     fit-margin-top="0"
     fit-margin-left="0"
     fit-margin-right="0"
     fit-margin-bottom="0" />
  <defs
     id="defs2" />
  <metadata
     id="metadata5">
    <rdf:RDF>
      <cc:Work
         rdf:about="">
        <dc:format>image/svg+xml</dc:format>
        <dc:type
           rdf:resource="http://purl.org/dc/dcmitype/StillImage" />
        <dc:title />
      </cc:Work>
    </rdf:RDF>
  </metadata>
  <flowRoot
     xml:space="preserve"
     id="flowRoot20"
     style="font-style:normal;font-weight:normal;font-size:40px;line-height:1.25;font-family:sans-serif;letter-spacing:0px;word-spacing:0px;fill:#000000;fill-opacity:1;stroke:none"
     transform="scale(0.26458332)"><flowRegion
       id="flowRegion22"><rect
         id="rect24"
         width="177.41463"
         height="44.563866"
         x="89.968559"
         y="159.21263" /></flowRegion><flowPara
       id="flowPara26">SCRIPTS</flowPara></flowRoot>  <g
     id="g65">
    <g
       transform="matrix(2.56,0,0,2.56,-188.91124,-191.2032)"
       id="g33">
      <g
         id="layer1">
        <g
           id="layer1-7"
           transform="matrix(1.1700893,0,0,1.2078902,11.27807,-179.18124)">
          <g
             id="g463">
            <g
               id="g28">
              <path
                 inkscape:connector-curvature="0"
                 style="fill:#0761b2;stroke-width:0.01795068"
                 d="m 67.743823,210.17638 a 4.999954,4.999954 0 0 0 -4.999922,4.99992 4.999954,4.999954 0 0 0 4.999922,4.99992 4.999954,4.999954 0 0 0 5.000078,-4.99992 4.999954,4.999954 0 0 0 -5.000078,-4.99992 z m -3.524581,1.47534 h 7.049319 v 7.04916 h -7.049319 z"
                 id="path336" />
              <path
                 inkscape:connector-curvature="0"
                 id="rect370"
                 d="m 64.219307,211.65172 h 7.04918 v 7.04918 h -7.04918 z"
                 style="fill:#1192a0;stroke-width:0.0777099" />
              <path
                 inkscape:connector-curvature="0"
                 id="path444"
                 style="font-style:normal;font-variant:normal;font-weight:normal;font-stretch:normal;font-size:40px;line-height:1.25;font-family:'Oswald Regular';-inkscape-font-specification:'Oswald Regular, ';letter-spacing:0px;word-spacing:0px;fill:#202020;fill-opacity:1;stroke:none;stroke-width:0.07993381"
                 d="m 65.503569,216.49708 q -0.19359,0 -0.332538,-0.0578 -0.137386,-0.0578 -0.218568,-0.17017 -0.08118,-0.11241 -0.118653,-0.26229 -0.03747,-0.14987 -0.03747,-0.34971 v -0.98044 q 0,-0.40435 0.163926,-0.61199 0.165489,-0.2092 0.543301,-0.2092 0.376251,0 0.541738,0.21076 0.165489,0.20921 0.165489,0.61043 v 0.982 q 0,0.40436 -0.16705,0.62136 -0.165487,0.21701 -0.540177,0.21701 z m -0.176417,-0.31536 q 0.07025,0.0328 0.176417,0.0328 0.106161,0 0.174855,-0.0328 0.07025,-0.0328 0.106162,-0.0999 0.03591,-0.0671 0.0484,-0.14675 0.01405,-0.0812 0.01405,-0.19984 v -1.13343 q 0,-0.11709 -0.01405,-0.19515 -0.01249,-0.0781 -0.0484,-0.14363 -0.03591,-0.0656 -0.106162,-0.0952 -0.06869,-0.0312 -0.174855,-0.0312 -0.106163,0 -0.176417,0.0312 -0.06869,0.0297 -0.104601,0.0952 -0.03591,0.0656 -0.04996,0.14363 -0.01249,0.0781 -0.01249,0.19515 v 1.13343 q 0,0.11866 0.01249,0.19984 0.01405,0.0796 0.04996,0.14675 0.03591,0.0671 0.104601,0.0999 z" />
              <path
                 inkscape:connector-curvature="0"
                 id="path446"
                 style="font-style:normal;font-variant:normal;font-weight:normal;font-stretch:normal;font-size:40px;line-height:1.25;font-family:'Oswald Regular';-inkscape-font-specification:'Oswald Regular, ';letter-spacing:0px;word-spacing:0px;fill:#202020;fill-opacity:1;stroke:none;stroke-width:0.07993381"
                 d="m 66.928951,215.00457 h 0.163926 q 0.237304,0 0.326293,-0.0843 0.08899,-0.0843 0.08899,-0.32317 0,-0.0984 -0.0047,-0.1608 -0.0047,-0.064 -0.02186,-0.12021 -0.01561,-0.0562 -0.04215,-0.0859 -0.02654,-0.0312 -0.07494,-0.0531 -0.04684,-0.0219 -0.110846,-0.0297 -0.06245,-0.008 -0.15612,-0.008 h -0.168611 z m -0.360639,1.46441 v -2.58848 h 0.641656 q 0.337221,0 0.488658,0.18266 0.151437,0.1811 0.151437,0.53237 0,0.31537 -0.163926,0.49178 -0.162366,0.17642 -0.474607,0.17642 h -0.282579 v 1.20525 z" />
              <path
                 inkscape:connector-curvature="0"
                 id="path448"
                 style="font-style:normal;font-variant:normal;font-weight:normal;font-stretch:normal;font-size:40px;line-height:1.25;font-family:'Oswald Regular';-inkscape-font-specification:'Oswald Regular, ';letter-spacing:0px;word-spacing:0px;fill:#202020;fill-opacity:1;stroke:none;stroke-width:0.07993381"
                 d="m 68.10454,216.46898 v -2.58848 h 1.002294 v 0.26697 h -0.641655 v 0.85554 h 0.521443 v 0.2576 h -0.521443 v 0.94921 h 0.649462 v 0.25916 z" />
              <path
                 inkscape:connector-curvature="0"
                 id="path450"
                 style="font-style:normal;font-variant:normal;font-weight:normal;font-stretch:normal;font-size:40px;line-height:1.25;font-family:'Oswald Regular';-inkscape-font-specification:'Oswald Regular, ';letter-spacing:0px;word-spacing:0px;fill:#202020;fill-opacity:1;stroke:none;stroke-width:0.07993381"
                 d="m 69.409709,216.46898 v -2.58848 h 0.245109 l 0.735329,1.71889 v -1.71889 h 0.301313 v 2.58848 h -0.231058 l -0.746257,-1.76885 v 1.76885 z" />
            </g>
          </g>
        </g>
        <path
           inkscape:connector-curvature="0"
           transform="scale(0.26458333)"
           id="rect28"
           d="m 285.16406,299.71289 c -1.51146,0 -2.84414,0.7484 -3.74609,1.9082 -1.06529,0.98199 -1.75391,2.43444 -1.75391,4.08008 v 37.94141 c 0,0.27913 -0.0374,-0.2674 0,0 -0.0671,0.36427 -0.043,1.55713 -0.043,1.9414 v 33.1211 c 0,3.38947 2.72772,6.11914 6.11719,6.11914 H 398.7168 c 3.38947,0 6.11914,-2.72967 6.11914,-6.11914 v -33.1211 c 0,-0.3171 0.0126,-0.71513 -0.0335,-1.01897 0.057,-0.32762 0.0452,-0.5762 0.0452,-0.92243 v -37.94141 c 0,-1.64564 -0.68861,-3.09809 -1.75391,-4.08008 -0.90195,-1.1598 -2.23462,-1.9082 -3.74609,-1.9082 h -33.6836 c 0.42968,1.77674 0.65067,3.60039 0.65821,5.43164 -0.008,1.7829 -0.21852,3.55868 -0.62696,5.29102 h 29.30274 V 339.4668 H 289.51367 v -29.03125 h 29.30274 c -0.40844,-1.73234 -0.61887,-3.50812 -0.62696,-5.29102 0.008,-1.83125 0.22853,-3.6549 0.65821,-5.43164 z"
           style="fill:none;fill-opacity:1;stroke:#848484;stroke-width:1.42488194;stroke-miterlimit:4;stroke-dasharray:none;stroke-dashoffset:20.900177;stroke-opacity:1" />
        <text
           id="text4636"
           y="99.688271"
           x="81.918106"
           style="font-style:normal;font-variant:normal;font-weight:normal;font-stretch:normal;font-size:3.52777767px;line-height:1.25;font-family:sans-serif;-inkscape-font-specification:'sans-serif, Normal';font-variant-ligatures:normal;font-variant-caps:normal;font-variant-numeric:normal;font-feature-settings:normal;text-align:start;letter-spacing:0px;word-spacing:0px;writing-mode:lr-tb;text-anchor:start;fill:#000000;fill-opacity:1;stroke:none;stroke-width:0.26458332"
           xml:space="preserve"><tspan
             style="font-style:normal;font-variant:normal;font-weight:normal;font-stretch:normal;font-size:3.52777767px;font-family:sans-serif;-inkscape-font-specification:'sans-serif, Normal';font-variant-ligatures:normal;font-variant-caps:normal;font-variant-numeric:normal;font-feature-settings:normal;text-align:start;writing-mode:lr-tb;text-anchor:start;stroke-width:0.26458332"
             y="109.05204"
             x="81.918106"
             id="tspan4634" /></text>
      </g>
    </g>
    <text
       transform="scale(0.98050367,1.019884)"
       id="text30"
       y="51.757427"
       x="13.021467"
       style="font-style:normal;font-variant:normal;font-weight:normal;font-stretch:normal;font-size:14.69563198px;line-height:1.25;font-family:sans-serif;-inkscape-font-specification:'sans-serif, Normal';font-variant-ligatures:normal;font-variant-caps:normal;font-variant-numeric:normal;font-feature-settings:normal;text-align:start;letter-spacing:0px;word-spacing:0px;writing-mode:lr-tb;text-anchor:start;fill:#000000;fill-opacity:1;stroke:none;stroke-width:0.30615899"
       xml:space="preserve"><tspan
         style="font-style:normal;font-variant:normal;font-weight:normal;font-stretch:normal;font-size:14.69563198px;font-family:sans-serif;-inkscape-font-specification:'sans-serif, Normal';font-variant-ligatures:normal;font-variant-caps:normal;font-variant-numeric:normal;font-feature-settings:normal;text-align:start;writing-mode:lr-tb;text-anchor:start;stroke-width:0.30615899"
         y="51.757427"
         x="13.021467"
         id="tspan28"
         sodipodi:role="line">SCRIPTS</tspan></text>
    <text
       transform="scale(0.94944015,1.0532523)"
       id="text34"
       y="61.043011"
       x="44.9762"
       style="font-style:normal;font-variant:normal;font-weight:normal;font-stretch:normal;font-size:1.49336147px;line-height:1.25;font-family:sans-serif;-inkscape-font-specification:'sans-serif, Normal';font-variant-ligatures:normal;font-variant-caps:normal;font-variant-numeric:normal;font-feature-settings:normal;text-align:center;letter-spacing:0px;word-spacing:0px;writing-mode:lr-tb;text-anchor:middle;fill:#000000;fill-opacity:1;stroke:none;stroke-width:0.53550941"
       xml:space="preserve"><tspan
         style="font-style:normal;font-variant:normal;font-weight:normal;font-stretch:normal;font-size:1.49336147px;font-family:sans-serif;-inkscape-font-specification:'sans-serif, Normal';font-variant-ligatures:normal;font-variant-caps:normal;font-variant-numeric:normal;font-feature-settings:normal;text-align:center;writing-mode:lr-tb;text-anchor:middle;stroke-width:0.53550941"
         y="61.043011"
         x="44.9762"
         id="tspan32"
         sodipodi:role="line">DeleteGmon, Diff, Echo, Lines, MakeInfo, Spaces</tspan></text>
  </g>
</svg>
